<?xml version="1.0" encoding="UTF-8"?>
<svg width="31px" height="31px" viewBox="0 0 31 31" version="1.1" xmlns="http://www.w3.org/2000/svg" xmlns:xlink="http://www.w3.org/1999/xlink">
    <!-- Generator: Sketch 54 (76480) - https://sketchapp.com -->
    <title>default</title>
    <desc>Created with Sketch.</desc>
    <g id="General-icons" stroke="none" stroke-width="1" fill="none" fill-rule="evenodd">
        <g id="viz_gallery_sprite" transform="translate(-6.000000, -566.000000)">
            <g id="default" transform="translate(0.000000, 560.000000)">
                <rect id="Rectangle-2955" fill="#71B4FE" x="6" y="6" width="31" height="31"></rect>
                <path d="M29.4280576,25.4440433 L29.4280576,25.4440433 L25.3956835,21.3971119 L26.8309353,19.9566787 C26.8992806,19.9566787 26.8992806,19.9566787 26.9676259,19.9566787 C27.9928058,19.9566787 28.9496403,19.5451264 29.7014388,18.7906137 C30.7266187,17.7617329 31.1366906,16.1155235 30.5899281,14.7436823 L30.3165468,13.9891697 L28.2661871,16.0469314 L27.2410072,15.7725632 L27.1043165,14.9494585 L27.0359712,14.6750903 L29.0863309,12.6173285 L28.3345324,12.3429603 C26.9676259,11.8628159 25.3273381,12.2057762 24.3021583,13.234657 C23.5503597,13.9891697 23.1402878,15.0180505 23.1402878,16.1155235 L21.705036,17.5559567 L17.3992806,13.234657 C17.3309353,13.166065 17.2625899,13.0974729 17.1258993,13.0974729 L17.1258993,13.0974729 L12,12 L13.0935252,17.1444043 L13.0935252,17.1444043 C13.0935252,17.2129964 13.1618705,17.3501805 13.2302158,17.4187726 L17.5359712,21.7400722 L16.0323741,23.2490975 C14.9388489,23.1805054 13.9136691,23.5920578 13.1618705,24.3465704 C12.1366906,25.3754513 11.7266187,27.0216606 12.2733813,28.3935018 L12.5467626,29.1480144 L14.5971223,27.0902527 L15.6906475,27.2960289 L15.7589928,27.6389892 L15.8956835,28.3935018 L13.8453237,30.4512635 L14.5971223,30.7256318 C15.0071942,30.8628159 15.4856115,30.9314079 15.8956835,30.9314079 C15.8956835,30.9314079 15.8956835,30.9314079 15.8956835,30.9314079 C16.9208633,30.9314079 17.8776978,30.5198556 18.6294964,29.765343 C19.381295,29.0108303 19.7913669,27.9133574 19.7230216,26.8844765 L21.2266187,25.3754513 L24.5755396,28.7364621 L24.5755396,28.7364621 L26.0107914,30.1768953 C26.4892086,30.6570397 27.1726619,31 27.9244604,31 C28.676259,31 29.2913669,30.7256318 29.8381295,30.1768953 L30.1798561,29.833935 C30.6582734,29.3537906 31,28.66787 31,27.9133574 C31,27.1588448 30.7266187,26.5415162 30.1798561,25.9927798 L29.4280576,25.4440433 Z M26.9676259,26.4729242 L23.618705,23.1119134 L24.6438849,22.0830325 L27.9928058,25.4440433 L26.9676259,26.4729242 Z M24.9856115,13.9891697 C25.5323741,13.4404332 26.2158273,13.166065 26.9676259,13.166065 C26.9676259,13.166065 27.0359712,13.166065 27.0359712,13.166065 L25.942446,14.33213 L26.352518,16.6642599 L27.9244604,16.9386282 L28.4028777,17.0072202 L28.4028777,17.0072202 L28.676259,17.0758123 L29.8381295,15.9097473 C29.8381295,16.6642599 29.5647482,17.4873646 29.0179856,18.0361011 C28.4028777,18.6534296 27.5827338,18.9277978 26.6942446,18.8592058 C26.0791367,18.7906137 25.4640288,18.5162455 24.9856115,18.0361011 C24.5071942,17.5559567 24.2338129,16.9386282 24.1654676,16.3212996 C24.0971223,15.4981949 24.3705036,14.6064982 24.9856115,13.9891697 Z M26.4892086,19.8880866 C26.4208633,19.8880866 26.4208633,19.8880866 26.352518,19.8880866 C26.4208633,19.8880866 26.4208633,19.8880866 26.4892086,19.8880866 Z M23.2769784,17.0758123 C23.2769784,17.0072202 23.2086331,16.9386282 23.2086331,16.8700361 C23.2086331,16.9386282 23.2086331,17.0072202 23.2769784,17.0758123 Z M20.9532374,18.3790614 L19.9280576,19.4079422 L16.0323741,15.4981949 L17.057554,14.4693141 L20.9532374,18.3790614 Z M15.9640288,14.0577617 L13.8453237,16.1841155 L13.2985612,13.5090253 L15.9640288,14.0577617 Z M15.2805755,16.1841155 L19.176259,20.0938628 L18.1510791,21.1227437 L14.2553957,17.2129964 L15.2805755,16.1841155 Z M23.3453237,17.4187726 C23.3453237,17.4187726 23.3453237,17.4187726 23.3453237,17.4187726 C23.3453237,17.4187726 23.3453237,17.4187726 23.3453237,17.4187726 C23.5503597,17.898917 23.823741,18.3790614 24.2338129,18.7906137 C24.6438849,19.2021661 25.1223022,19.4765343 25.6007194,19.6823105 C25.6007194,19.6823105 25.5323741,19.7509025 25.5323741,19.7509025 L19.4496403,25.8555957 C19.4496403,25.8555957 19.4496403,25.7870036 19.4496403,25.7870036 C19.4496403,25.7870036 19.4496403,25.7870036 19.4496403,25.7870036 C19.4496403,25.7870036 19.4496403,25.7870036 19.4496403,25.8555957 C19.2446043,25.3754513 18.971223,24.8953069 18.5611511,24.4837545 C18.1510791,24.0722022 17.6726619,23.7978339 17.1258993,23.5920578 C17.1258993,23.5920578 17.1942446,23.5920578 17.1942446,23.5920578 L23.3453237,17.4187726 Z M16.852518,23.4548736 C16.7158273,23.3862816 16.5791367,23.3862816 16.442446,23.3862816 C16.442446,23.3862816 16.442446,23.3862816 16.442446,23.3862816 C16.647482,23.3862816 16.7841727,23.3862816 16.852518,23.4548736 Z M16.1007194,23.3176895 C16.1690647,23.3176895 16.1690647,23.3176895 16.1007194,23.3176895 C16.1690647,23.3176895 16.1007194,23.3176895 16.1007194,23.3176895 C16.1007194,23.3176895 16.1007194,23.3176895 16.1007194,23.3176895 Z M17.8776978,29.2166065 C17.3309353,29.765343 16.5791367,30.0397112 15.7589928,30.0397112 L16.9208633,28.8736462 L16.5791367,27.0216606 L16.5107914,26.5415162 L16.5107914,26.5415162 L16.5107914,26.5415162 L16.0323741,26.4729242 L14.4604317,26.198556 L14.4604317,26.198556 L14.1870504,26.1299639 L13.0251799,27.2960289 C13.0251799,26.5415162 13.2985612,25.7184116 13.8453237,25.1696751 C14.4604317,24.5523466 15.2805755,24.2779783 16.1690647,24.3465704 C16.852518,24.4151625 17.3992806,24.6895307 17.8776978,25.1696751 C18.3561151,25.6498195 18.6294964,26.267148 18.6978417,26.8844765 C18.7661871,27.7761733 18.4928058,28.599278 17.8776978,29.2166065 Z M22.9352518,23.866426 L26.2841727,27.2274368 L25.2589928,28.2563177 L21.9100719,24.8953069 L22.9352518,23.866426 Z M29.4280576,29.3537906 L29.0863309,29.6967509 C28.471223,30.3140794 27.3776978,30.3140794 26.6942446,29.6967509 L25.942446,28.9422383 L28.676259,26.198556 L29.4280576,26.9530686 C29.7697842,27.2960289 29.9064748,27.7075812 29.9064748,28.1191336 C29.9064748,28.599278 29.7697842,29.0108303 29.4280576,29.3537906 Z" id="Shape-Copy-2" fill="#FFFFFF" fill-rule="nonzero"></path>
            </g>
        </g>
    </g>
</svg>
